<svg xmlns="http://www.w3.org/2000/svg" viewBox="0 0 440 100" width="880" height="200" xmlns:c2pa="http://c2pa.org/manifest"><metadata><c2pa:manifest>AAAWgmp1bWIAAAAeanVtZGMycGEAEQAQgAAAqgA4m3EDYzJwYQAAABZcanVtYgAAAEdqdW1kYzJtYQARABCAAACqADibcQN1cm46YzJwYTozMTViYTdkNy1lZmI5LTQwMmYtYmYzNC00NzUyZTNkNjE3ZmQAAAADl2p1bWIAAAApanVtZGMyYXMAEQAQgAAAqgA4m3EDYzJwYS5hc3NlcnRpb25zAAAAALxqdW1iAAAARGp1bWRjYm9yABEAEIAAAKoAOJtxE2MycGEuaW5ncmVkaWVudC52MwAAAAAYYzJzaDNaSTdB3i+QwWRcvZhVZPAAAABwY2JvcqNpZGM6Zm9ybWF0bWltYWdlL3N2Zyt4bWxqaW5zdGFuY2VJRHgseG1wOmlpZDpiY2YyNDJjNy0yMzE4LTQ2ZjQtYTI1NS1iMmY1N2M5OWQwYmFscmVsYXRpb25zaGlwaHBhcmVudE9mAAAB4mp1bWIAAABBanVtZGNib3IAEQAQgAAAqgA4m3ETYzJwYS5hY3Rpb25zLnYyAAAAABhjMnNoEoqZgDZ5PiukO2SPpUyk+QAAAZljYm9yomdhY3Rpb25zgqJmYWN0aW9ua2MycGEub3BlbmVkanBhcmFtZXRlcnOha2luZ3JlZGllbnRzgaJjdXJseC1zZWxmI2p1bWJmPWMycGEuYXNzZXJ0aW9ucy9jMnBhLmluZ3JlZGllbnQudjNkaGFzaFggAN//kNQgQ8qBWNhODdGQ3j84ND+7P/HHoi1O4RKRTe2kZmFjdGlvbngdY29tLmFudGhyb3BpYy5jbGF1ZGUucHJvdmlkZWRqcGFyYW1ldGVyc6F4H2NvbS5hbnRocm9waWMub3JpZ2luLWNvbmZpZGVuY2VndW5rbm93bmtkZXNjcmlwdGlvbnhmQ2xhdWRlIHByb3ZpZGVkIHRoaXMgZmlsZSBhdCB0aGUgcmVxdWVzdCBvZiBhIHVzZXIgYW5kIG1heSBoYXZlIGNyZWF0ZWQgb3IgbW9kaWZpZWQgdGhlIGZpbGUgY29udGVudHMubXNvZnR3YXJlQWdlbnShZG5hbWVmQ2xhdWRlcmFsbEFjdGlvbnNJbmNsdWRlZPUAAADIanVtYgAAAEBqdW1kY2JvcgARABCAAACqADibcRNjMnBhLmhhc2guZGF0YQAAAAAYYzJzaEM9kkNY8YHNA86oT+3LiwUAAACAY2JvcqVjYWxnZnNoYTI1NmNwYWRNAAAAAAAAAAAAAAAAAGRoYXNoWCAwoYj7IU7z8RaGmXDo46K50ysLZb8R6529EwA6hYIk8WRuYW1lbmp1bWJmIG1hbmlmZXN0amV4Y2x1c2lvbnOBomVzdGFydBiWZmxlbmd0aBkeBAAAAj5qdW1iAAAAJ2p1bWRjMmNsABEAEIAAAKoAOJtxA2MycGEuY2xhaW0udjIAAAACD2Nib3KlY2FsZ2ZzaGEyNTZpc2lnbmF0dXJleE1zZWxmI2p1bWJmPS9jMnBhL3VybjpjMnBhOjMxNWJhN2Q3LWVmYjktNDAyZi1iZjM0LTQ3NTJlM2Q2MTdmZC9jMnBhLnNpZ25hdHVyZWppbnN0YW5jZUlEeCx4bXA6aWlkOjYyNGRhZmU4LWEyY2YtNGFhYS05NDJkLTk3ZTk4ZTllZTBiNXJjcmVhdGVkX2Fzc2VydGlvbnODomN1cmx4LXNlbGYjanVtYmY9YzJwYS5hc3NlcnRpb25zL2MycGEuaW5ncmVkaWVudC52M2RoYXNoWCAA3/+Q1CBDyoFY2E4N0ZDePzg0P7s/8ceiLU7hEpFN7aJjdXJseCpzZWxmI2p1bWJmPWMycGEuYXNzZXJ0aW9ucy9jMnBhLmFjdGlvbnMudjJkaGFzaFggRITFidf39kRLDvL7SWvyg4nhDycknBry2B4RaLXu/22iY3VybHgpc2VsZiNqdW1iZj1jMnBhLmFzc2VydGlvbnMvYzJwYS5oYXNoLmRhdGFkaGFzaFggZhist1lbFnBs8pIIcs9pUwdfyxIFgklwi7QMGZa7iBV0Y2xhaW1fZ2VuZXJhdG9yX2luZm+jZG5hbWVvQW50aHJvcGljIEZpbGVzZ3ZlcnNpb25lMS4wLjBrc3BlY1ZlcnNpb25lMi40LjAAABA4anVtYgAAAChqdW1kYzJjcwARABCAAACqADibcQNjMnBhLnNpZ25hdHVyZQAAABAIY2JvctKEWQISogEmGCFZAgowggIGMIIBjaADAgECAhRA5aAK7sI50L64g/oGQgU9Z1UTADAKBggqhkjOPQQDAzBJMRcwFQYDVQQKEw5BbnRocm9waWMsIFBCQzEuMCwGA1UEAxMlQW50aHJvcGljIENvbnRlbnQgQ3JlZGVudGlhbHMgUm9vdCBDQTAeFw0yNjA4MDcxODQzNTZaFw0yODA4MDYxOTQzNTZaMEQxFzAVBgNVBAoTDkFudGhyb3BpYywgUEJDMSkwJwYDVQQDEyBBbnRocm9waWMgQ2xhdWRlIENvbnRlbnQgU2lnbmluZzBZMBMGByqGSM49AgEGCCqGSM49AwEHA0IABJh6CmvLUBgFFNU0vUKlOVtE6djd17L5SuwX0LemFisBM3dkd/3cyjxFA3Qo5S46fX0/ihY0VZ7mfb9KF703t5OjWDBWMA4GA1UdDwEB/wQEAwIHgDAVBgNVHSUEDjAMBgorBgEEAYPoXgIBMAwGA1UdEwEB/wQCMAAwHwYDVR0jBBgwFoAUzlHiBIFOZFsj+OPEz5o+nMHXXMIwCgYIKoZIzj0EAwMDZwAwZAIwMXMdFJ4BetLLVY7ORuE9noqbbAZOZn/aArXyTwFAZfKrPzxF2vPoJNf1+UCdg1XGAjBwX1zd9WGqYkqmL5SFqw1QySjr1zJfpJM9+1rdDwSPLMOPOjKuiXjoU/pUUeG9RwmhY3BhZFkNngAAAAAAAAAAAAAAAAAAAAAAAAAAAAAAAAAAAAAAAAAAAAAAAAAAAAAAAAAAAAAAAAAAAAAAAAAAAAAAAAAAAAAAAAAAAAAAAAAAAAAAAAAAAAAAAAAAAAAAAAAAAAAAAAAAAAAAAAAAAAAAAAAAAAAAAAAAAAAAAAAAAAAAAAAAAAAAAAAAAAAAAAAAAAAAAAAAAAAAAAAAAAAAAAAAAAAAAAAAAAAAAAAAAAAAAAAAAAAAAAAAAAAAAAAAAAAAAAAAAAAAAAAAAAAAAAAAAAAAAAAAAAAAAAAAAAAAAAAAAAAAAAAAAAAAAAAAAAAAAAAAAAAAAAAAAAAAAAAAAAAAAAAAAAAAAAAAAAAAAAAAAAAAAAAAAAAAAAAAAAAAAAAAAAAAAAAAAAAAAAAAAAAAAAAAAAAAAAAAAAAAAAAAAAAAAAAAAAAAAAAAAAAAAAAAAAAAAAAAAAAAAAAAAAAAAAAAAAAAAAAAAAAAAAAAAAAAAAAAAAAAAAAAAAAAAAAAAAAAAAAAAAAAAAAAAAAAAAAAAAAAAAAAAAAAAAAAAAAAAAAAAAAAAAAAAAAAAAAAAAAAAAAAAAAAAAAAAAAAAAAAAAAAAAAAAAAAAAAAAAAAAAAAAAAAAAAAAAAAAAAAAAAAAAAAAAAAAAAAAAAAAAAAAAAAAAAAAAAAAAAAAAAAAAAAAAAAAAAAAAAAAAAAAAAAAAAAAAAAAAAAAAAAAAAAAAAAAAAAAAAAAAAAAAAAAAAAAAAAAAAAAAAAAAAAAAAAAAAAAAAAAAAAAAAAAAAAAAAAAAAAAAAAAAAAAAAAAAAAAAAAAAAAAAAAAAAAAAAAAAAAAAAAAAAAAAAAAAAAAAAAAAAAAAAAAAAAAAAAAAAAAAAAAAAAAAAAAAAAAAAAAAAAAAAAAAAAAAAAAAAAAAAAAAAAAAAAAAAAAAAAAAAAAAAAAAAAAAAAAAAAAAAAAAAAAAAAAAAAAAAAAAAAAAAAAAAAAAAAAAAAAAAAAAAAAAAAAAAAAAAAAAAAAAAAAAAAAAAAAAAAAAAAAAAAAAAAAAAAAAAAAAAAAAAAAAAAAAAAAAAAAAAAAAAAAAAAAAAAAAAAAAAAAAAAAAAAAAAAAAAAAAAAAAAAAAAAAAAAAAAAAAAAAAAAAAAAAAAAAAAAAAAAAAAAAAAAAAAAAAAAAAAAAAAAAAAAAAAAAAAAAAAAAAAAAAAAAAAAAAAAAAAAAAAAAAAAAAAAAAAAAAAAAAAAAAAAAAAAAAAAAAAAAAAAAAAAAAAAAAAAAAAAAAAAAAAAAAAAAAAAAAAAAAAAAAAAAAAAAAAAAAAAAAAAAAAAAAAAAAAAAAAAAAAAAAAAAAAAAAAAAAAAAAAAAAAAAAAAAAAAAAAAAAAAAAAAAAAAAAAAAAAAAAAAAAAAAAAAAAAAAAAAAAAAAAAAAAAAAAAAAAAAAAAAAAAAAAAAAAAAAAAAAAAAAAAAAAAAAAAAAAAAAAAAAAAAAAAAAAAAAAAAAAAAAAAAAAAAAAAAAAAAAAAAAAAAAAAAAAAAAAAAAAAAAAAAAAAAAAAAAAAAAAAAAAAAAAAAAAAAAAAAAAAAAAAAAAAAAAAAAAAAAAAAAAAAAAAAAAAAAAAAAAAAAAAAAAAAAAAAAAAAAAAAAAAAAAAAAAAAAAAAAAAAAAAAAAAAAAAAAAAAAAAAAAAAAAAAAAAAAAAAAAAAAAAAAAAAAAAAAAAAAAAAAAAAAAAAAAAAAAAAAAAAAAAAAAAAAAAAAAAAAAAAAAAAAAAAAAAAAAAAAAAAAAAAAAAAAAAAAAAAAAAAAAAAAAAAAAAAAAAAAAAAAAAAAAAAAAAAAAAAAAAAAAAAAAAAAAAAAAAAAAAAAAAAAAAAAAAAAAAAAAAAAAAAAAAAAAAAAAAAAAAAAAAAAAAAAAAAAAAAAAAAAAAAAAAAAAAAAAAAAAAAAAAAAAAAAAAAAAAAAAAAAAAAAAAAAAAAAAAAAAAAAAAAAAAAAAAAAAAAAAAAAAAAAAAAAAAAAAAAAAAAAAAAAAAAAAAAAAAAAAAAAAAAAAAAAAAAAAAAAAAAAAAAAAAAAAAAAAAAAAAAAAAAAAAAAAAAAAAAAAAAAAAAAAAAAAAAAAAAAAAAAAAAAAAAAAAAAAAAAAAAAAAAAAAAAAAAAAAAAAAAAAAAAAAAAAAAAAAAAAAAAAAAAAAAAAAAAAAAAAAAAAAAAAAAAAAAAAAAAAAAAAAAAAAAAAAAAAAAAAAAAAAAAAAAAAAAAAAAAAAAAAAAAAAAAAAAAAAAAAAAAAAAAAAAAAAAAAAAAAAAAAAAAAAAAAAAAAAAAAAAAAAAAAAAAAAAAAAAAAAAAAAAAAAAAAAAAAAAAAAAAAAAAAAAAAAAAAAAAAAAAAAAAAAAAAAAAAAAAAAAAAAAAAAAAAAAAAAAAAAAAAAAAAAAAAAAAAAAAAAAAAAAAAAAAAAAAAAAAAAAAAAAAAAAAAAAAAAAAAAAAAAAAAAAAAAAAAAAAAAAAAAAAAAAAAAAAAAAAAAAAAAAAAAAAAAAAAAAAAAAAAAAAAAAAAAAAAAAAAAAAAAAAAAAAAAAAAAAAAAAAAAAAAAAAAAAAAAAAAAAAAAAAAAAAAAAAAAAAAAAAAAAAAAAAAAAAAAAAAAAAAAAAAAAAAAAAAAAAAAAAAAAAAAAAAAAAAAAAAAAAAAAAAAAAAAAAAAAAAAAAAAAAAAAAAAAAAAAAAAAAAAAAAAAAAAAAAAAAAAAAAAAAAAAAAAAAAAAAAAAAAAAAAAAAAAAAAAAAAAAAAAAAAAAAAAAAAAAAAAAAAAAAAAAAAAAAAAAAAAAAAAAAAAAAAAAAAAAAAAAAAAAAAAAAAAAAAAAAAAAAAAAAAAAAAAAAAAAAAAAAAAAAAAAAAAAAAAAAAAAAAAAAAAAAAAAAAAAAAAAAAAAAAAAAAAAAAAAAAAAAAAAAAAAAAAAAAAAAAAAAAAAAAAAAAAAAAAAAAAAAAAAAAAAAAAAAAAAAAAAAAAAAAAAAAAAAAAAAAAAAAAAAAAAAAAAAAAAAAAAAAAAAAAAAAAAAAAAAAAAAAAAAAAAAAAAAAAAAAAAAAAAAAAAAAAAAAAAAAAAAAAAAAAAAAAAAAAAAAAAAAAAAAAAAAAAAAAAAAAAAAAAAAAAAAAAAAAAAAAAAAAAAAAAAAAAAAAAAAAAAAAAAAAAAAAAAAAAAAAAAAAAAAAAAAAAAAAAAAAAAAAAAAAAAAAAAAAAAAAAAAAAAAAAAAAAAAAAAAAAAAAAAAAAAAAAAAAAAAAAAAAAAAAAAAAAAAAAAAAAAAAAAAAAAAAAAAAAAAAAAAAAAAAAAAAAAAAAAAAAAAAAAAAAAAAAAAAAAAAAAAAAAAAAAAAAAAAAAAAAAAAAAAAAAAAAAAAAAAAAAAAAAAAAAAAAAAAAAAAAAAAAAAAAAAAAAAAAAAAAAAAAAAAAAAAAAAAAAAAAAAAAAAAAAAAAAAAAAAAAAAAAAAAAAAAAAAAAAAAAAAAAAAAAAAAAAAAAAAAAAAAAAAAAAAAAAAAAAAAAAAAAAAAAAAAAAAAAAAAAAAAAAAAAAAAAAAAAAAAAAAAAAAAAAAAAAAAAAAAAAAAAAAAAAAAAAAAAAAAAAAAAAAAAAAAAAAAAAAAAAAAAAAAAAAAAAAAAAAAAAAAAAAAAAAAAAAAAAAAAAAAAAAAAAAAAAAAAAAAAAAAAAAAAAAAAAAAAAAAAAAAAAAAAAAAAAAAAAAAAAAAAAAAAAAAAAAAAAAAAAAAAAAAAAAAAAAAAAAAAAAAAAAAAAAAAAAAAAAAAAAAAAAAAAAAAAAAAAAAAAAAAAAAAAAAAAAAAAAAAAAAAAAAAAAAAAAAAAAAAAAAAAAAAAAAAAAAAAAAAAAAAAAAAAAAAAAAAAAAAAAAAAAAAAAAAAAAAAAAAAAAAAAAAAAAAAAAAAAAAAAAAAAAAAAAAAAAAAAAAAAAAAAAAAAAAAAAAAAAAAAAAAAAAAAAAAAAAAAAAAAAAAAAAAAAAAAAAAAAAAAAAAAAAAAAAAAAAAAAAAAAAAAAAAAAAAAAAAAAAAAAAAAAAAAAAAAAAAAAAAAAAAAAAAAAAAAAAAAAAAAAAAAAAAAAAAAAAAAAAAAAAAAAAAAAAAAAAAAAAAAAAAAAAAAAAAAAAAAAAAAAAAAAAAAAAAAAAAAAAAAAAAAAAAAAAAAAAAAAAAAAAAAAAAAAAAAAAAAAAAAAAAAAAAAAAAAAAAAAAAAAAAAAAAAAAAAAAAAAAAAAAAAAAAAAAAAAAAAAAAAAAAAAAAAAAAAAAAAAAAAAAAAAAAAAAAAAAAAAAAAAAAAAAAAAAAAAAAAAAAAAAAAAAAAAAAAAAAAAAAAAAAAAAAAAAAAAAAAAAAAAAAAAAAAAAAAAAAAAAAAAAAAAAAAAAAAAAAAAAAAAAAAAAAAAAAAAAAAAAAAAAAAAAAAAAAAAAAAAAAAAAAAAAAAAAAAAAAAAAAAAAAAAAAAAAAAAAAAAAAAAAAAAAAAAAAAAAAAAAAAAAAAAAAAAAAAAAAAAAAAAAAAAAAAAAAAAAAAAAAAAAAAAAAAAAAAAAAAAAAAAAAAAAAAAAAAAAAAAAAAAAAAAAAAAAAAAAAAAAAAAAAAAAAAAAAAAAAPZYQG1Z4DfqAqWzxIlcFgjJsbR1Qqjm84zWcPZWrBRYsmvXNSFBpIZz4Gkmq6OohgGlI/O7pxTkiv1a0xBwKDC8Khs=</c2pa:manifest></metadata>
<g transform="translate(4 -6)"><g fill="none" stroke="#439eff" stroke-linecap="round" stroke-linejoin="round">
<path d="M45.33 46.07 L16 26 M61.42 44.58 L80 26 M64.49 52.4 L106 54 M48.03 60.64 L41.7 69.8 M62.14 58.63 L78.2 71.7" stroke-width="3"></path>
<path d="M26 78 H16 V26 H80 L106 54 V78 H96 M76 78 H46" stroke-width="6" stroke-linecap="butt"></path>
<circle cx="54" cy="52" r="7.25" stroke-width="6.5"></circle>
<circle cx="36" cy="78" r="10" stroke-width="6"></circle><circle cx="86" cy="78" r="10" stroke-width="6"></circle>
</g>
<g fill="#439eff"><circle cx="16" cy="26" r="6.5"></circle><circle cx="80" cy="26" r="6.5"></circle><circle cx="106" cy="54" r="6.5"></circle><circle cx="106" cy="78" r="6.5"></circle><circle cx="16" cy="78" r="6.5"></circle></g></g>
<path d="M151.52 73L142.90 73L142.90 39.33L149.72 39.33L149.72 50.25Q150.28 45.41 152.63 42.62L152.63 42.62Q155.73 38.90 161.75 38.90L161.75 38.90L162.99 38.90L162.99 46.40L160.63 46.40Q156.29 46.40 153.90 48.73Q151.52 51.05 151.52 55.45L151.52 55.45L151.52 73ZM181.71 74.18L181.71 74.18Q177.37 74.18 174.12 72.69Q170.86 71.20 168.72 68.69Q166.58 66.18 165.50 63.08Q164.41 59.98 164.41 56.76L164.41 56.76L164.41 55.58Q164.41 52.23 165.50 49.10Q166.58 45.97 168.72 43.52Q170.86 41.07 174.02 39.61Q177.18 38.16 181.34 38.16L181.34 38.16Q186.79 38.16 190.48 40.54Q194.17 42.93 196.03 46.80Q197.89 50.68 197.89 55.14L197.89 55.14L197.89 58.24L172.60 58.24Q172.78 60.17 173.46 61.78L173.46 61.78Q174.46 64.26 176.50 65.65Q178.55 67.05 181.71 67.05Q184.87 67.05 186.86 65.78Q188.84 64.51 189.40 62.65L189.40 62.65L197.33 62.65Q196.59 66.12 194.48 68.72Q192.37 71.33 189.12 72.75Q185.86 74.18 181.71 74.18ZM172.72 52.97L172.72 52.97L189.65 52.97Q189.46 51.36 188.90 50.06L188.90 50.06Q187.97 47.77 186.08 46.53Q184.19 45.29 181.34 45.29Q178.49 45.29 176.50 46.59Q174.52 47.89 173.53 50.31L173.53 50.31Q172.97 51.55 172.72 52.97ZM211.84 73L203.22 73L203.22 39.33L210.04 39.33L210.04 47.64Q210.35 46.34 210.79 45.16L210.79 45.16Q212.15 41.75 214.85 40.02Q217.55 38.28 221.58 38.28L221.58 38.28L221.95 38.28Q227.96 38.28 231.06 42.16Q234.16 46.03 234.16 53.72L234.16 53.72L234.16 73L225.54 73L225.54 52.97Q225.54 49.87 223.78 47.95Q222.01 46.03 218.91 46.03L218.91 46.03Q215.75 46.03 213.80 47.98Q211.84 49.94 211.84 53.22L211.84 53.22L211.84 73ZM256.61 74.18L256.61 74.18Q252.27 74.18 249.01 72.69Q245.76 71.20 243.62 68.69Q241.48 66.18 240.39 63.08Q239.31 59.98 239.31 56.76L239.31 56.76L239.31 55.58Q239.31 52.23 240.39 49.10Q241.48 45.97 243.62 43.52Q245.76 41.07 248.92 39.61Q252.08 38.16 256.23 38.16L256.23 38.16Q261.69 38.16 265.38 40.54Q269.07 42.93 270.93 46.80Q272.79 50.68 272.79 55.14L272.79 55.14L272.79 58.24L247.49 58.24Q247.68 60.17 248.36 61.78L248.36 61.78Q249.35 64.26 251.40 65.65Q253.44 67.05 256.61 67.05Q259.77 67.05 261.75 65.78Q263.74 64.51 264.29 62.65L264.29 62.65L272.23 62.65Q271.49 66.12 269.38 68.72Q267.27 71.33 264.02 72.75Q260.76 74.18 256.61 74.18ZM247.62 52.97L247.62 52.97L264.54 52.97Q264.36 51.36 263.80 50.06L263.80 50.06Q262.87 47.77 260.98 46.53Q259.09 45.29 256.23 45.29Q253.38 45.29 251.40 46.59Q249.41 47.89 248.42 50.31L248.42 50.31Q247.86 51.55 247.62 52.97ZM295.67 73L283.33 73L274.15 39.33L282.52 39.33L289.40 65.93L290.71 65.93L295.73 40.45L305.65 40.45L311.41 65.93L312.72 65.93L318.85 39.33L326.67 39.33L318.54 73L306.21 73L300.63 48.88L295.67 73Z" fill="#0f1a2a"></path><path d="M352.15 73L338.32 73L327.78 39.33L336.65 39.33L344.65 65.93L346.07 65.93L352.95 39.33L361.26 39.33L352.15 73ZM392.70 73L385.88 73L385.88 66.55Q385.44 67.85 384.88 68.91L384.88 68.91Q383.46 71.33 381.01 72.60Q378.56 73.87 375.03 73.87L375.03 73.87Q371.37 73.87 368.61 72.57Q365.85 71.26 364.33 68.85Q362.81 66.43 362.81 63.02L362.81 63.02Q362.81 59.30 364.64 56.94Q366.47 54.59 369.79 53.41Q373.10 52.23 377.57 52.23L377.57 52.23L384.45 52.23L384.45 51.92Q384.45 49.01 383.02 47.58Q381.60 46.15 378.62 46.15L378.62 46.15Q377.07 46.15 374.90 46.22Q372.73 46.28 370.53 46.37Q368.33 46.46 366.59 46.59L366.59 46.59L366.59 39.27Q368.02 39.15 369.82 39.02Q371.62 38.90 373.51 38.87Q375.40 38.84 377.07 38.84L377.07 38.84Q382.28 38.84 385.72 40.20Q389.16 41.57 390.93 44.48Q392.70 47.39 392.70 52.11L392.70 52.11L392.70 73ZM384.45 60.54L384.45 57.38L377.44 57.38Q374.47 57.38 372.89 58.83Q371.31 60.29 371.31 62.58Q371.31 64.88 372.89 66.30Q374.47 67.73 377.44 67.73L377.44 67.73Q379.24 67.73 380.76 67.08Q382.28 66.43 383.30 64.85Q384.33 63.27 384.45 60.54L384.45 60.54ZM408.69 73L400.07 73L400.07 39.33L406.89 39.33L406.89 47.64Q407.20 46.34 407.64 45.16L407.64 45.16Q409.00 41.75 411.70 40.02Q414.40 38.28 418.43 38.28L418.43 38.28L418.80 38.28Q424.81 38.28 427.91 42.16Q431.01 46.03 431.01 53.72L431.01 53.72L431.01 73L422.39 73L422.39 52.97Q422.39 49.87 420.63 47.95Q418.86 46.03 415.76 46.03L415.76 46.03Q412.60 46.03 410.65 47.98Q408.69 49.94 408.69 53.22L408.69 53.22L408.69 73Z" fill="#439eff"></path></svg>